Coordinates

Units are S.I. units (second, meters, Newtons, ...)
If the header above contains a line with 'inDegrees', this indicates whether rotational values are in degrees (yes) or radians (no).

inDegrees=no
nColumns=21
nRows=29
DataType=double
version=3
OpenSimVersion=4.6-2026-03-31-d6972f9e6
endheader
time	/jointset/ground_pelvis/pelvis_tilt/value	/jointset/ground_pelvis/pelvis_list/value	/jointset/ground_pelvis/pelvis_rotation/value	/jointset/ground_pelvis/pelvis_tx/value	/jointset/ground_pelvis/pelvis_ty/value	/jointset/ground_pelvis/pelvis_tz/value	/jointset/hip_r/hip_flexion_r/value	/jointset/hip_r/hip_adduction_r/value	/jointset/hip_r/hip_rotation_r/value	/jointset/walker_knee_r/knee_angle_r/value	/jointset/patellofemoral_r/knee_angle_r_beta/value	/jointset/ankle_r/ankle_angle_r/value	/jointset/subtalar_r/subtalar_angle_r/value	/jointset/hip_l/hip_flexion_l/value	/jointset/hip_l/hip_adduction_l/value	/jointset/hip_l/hip_rotation_l/value	/jointset/walker_knee_l/knee_angle_l/value	/jointset/patellofemoral_l/knee_angle_l_beta/value	/jointset/ankle_l/ankle_angle_l/value	/jointset/subtalar_l/subtalar_angle_l/value
144.996	-0.1096452765202481	0.02740506359850767	0.03567463575594668	0.9066941662245037	1.021079263267625	-0.2854330752366561	0.6320596919422905	-0.06023255830681193	0.1023173080925851	1.363528329739181	1.363528330461988	-0.1340383782908075	-0.1408384679897547	-0.0366604364011968	0.03798521353872032	-0.003799301098900862	0.4672149941600568	0.4672149950079512	0.09623490756958458	0.01486949319332815
145	-0.1143938524712138	0.02425195976803376	0.02828070859088502	0.9078397558709762	1.024346555804597	-0.2853031793040039	0.636671503543867	-0.05440559575963769	0.1008381686119627	1.327799002566848	1.327799003461681	-0.1361422665727303	-0.1461563628296569	-0.04879727400315922	0.03510406963165592	-0.008673384752393622	0.4490098912365058	0.4490098920538665	0.06098992614025726	0.01065835925375806
145.004	-0.1194507013774244	0.02109291448759411	0.02072544494363944	0.9090221510745453	1.027526839829921	-0.2851336279319562	0.6407687378670318	-0.04840049905915474	0.09936013506890037	1.290869862612856	1.29086986366811	-0.1382415995360126	-0.151763514263908	-0.0599761412081958	0.03215748235702686	-0.01398503238483649	0.4317397149776586	0.4317397157657447	0.02588066985964272	0.006984227007839172
145.008	-0.1247652643906523	0.01797133503615388	0.01311677922512075	0.9102335603450454	1.030609843310214	-0.2849321261650517	0.6442999526308784	-0.04231125915870585	0.09785652989557728	1.252772518197424	1.252772519394521	-0.1401796498644286	-0.1573832962852447	-0.07020810317841632	0.02920066229665262	-0.01956025357700798	0.4155219260258778	0.415521926785355	-0.008866548644741323	0.003771762143212458
145.012	-0.130277152429687	0.01493608130497095	0.0055638128384764	0.9114659103088171	1.033586586536076	-0.2847066539289687	0.6472080815714658	-0.03623871417090967	0.09630206967816857	1.213546144742806	1.213546146057805	-0.1418075185222298	-0.1627418358926649	-0.07951645009446216	0.02629372623388738	-0.02521290051339693	0.4004730101597695	0.4004730108909372	-0.0430371606544771	0.0009267526416955515
145.016	-0.135917938316088	0.01204001624094888	-0.001826809676894764	0.9127109456227003	1.036449271405031	-0.2844651373453339	0.6494333372979232	-0.0302871576471796	0.09467400664960704	1.1732393599954	1.173239361400754	-0.1429890266397239	-0.1675746972057895	-0.08793482510614423	0.02349991317415137	-0.03075089401940267	0.3867079165498203	0.3867079172528952	-0.07642950139593752	-0.001657686469870631
145.02	-0.1416132568463205	0.009338247425528075	-0.008954283432538594	0.9139603314583025	1.039191154191719	-0.2842151574289457	0.6509162839926127	-0.02456080529011292	0.09295281205339687	1.131911990171677	1.131911991638091	-0.1436054295346127	-0.1716332248813225	-0.0955051679302157	0.02088372381141073	-0.03598243959566132	0.3743391914036984	0.3743391920790552	-0.1088553463588715	-0.004094528726194595
145.024	-0.1472850007599951	0.006886064896228329	-0.01572673087564633	0.9152057605518665	1.041806422572565	-0.2839637027242689	0.6516007971815004	-0.01916014562533367	0.09112243411103499	1.089636614810591	1.089636616308884	-0.1435598315559852	-0.1746904884251961	-0.102275751499286	0.01850897253579444	-0.04072202474099795	0.3634757009537444	0.3634757016019142	-0.1401400181987582	-0.006496419357028714
145.028	-0.1528534758894184	0.004736692285209231	-0.02206385806570948	0.9164390603547207	1.044290086515026	-0.2837169730823354	0.6514367416194349	-0.01417836039615422	0.08917015769346988	1.046499833638674	1.046499835141509	-0.1427810519956296	-0.1765466589016245	-0.1082994058464671	0.01643680939124175	-0.04479600226317029	0.354221046123334	0.3542210467446623	-0.1701222231130198	-0.00896968869584446
145.032	-0.1582394541201349	0.002939041288308385	-0.02789900677385809	0.9176522940412289	1.046637883345074	-0.2834802417017948	0.6503823041382674	-0.009698098810017137	0.08708609231212451	1.002603239834695	1.002603241317947	-0.1412266414845047	-0.1770336007369965	-0.1136318936693822	0.01472381682523893	-0.04804759241122151	0.3466718742225069	0.3466718748166394	-0.1986537249529308	-0.01160884157058313
145.036	-0.1633661374761082	0.001535650458054579	-0.03318049504830701	0.9188378523956805	1.048846191406437	-0.2832577777081749	0.6484060093181269	-0.00578883694386473	0.08486236938251777	0.9580640911885023	0.9580640926320864	-0.1388847942677339	-0.176018470419826	-0.118330344177443	0.01342027853542564	-0.05034119449234087	0.3409162529449528	0.3409162535104769	-0.2255989281794312	-0.01449152288374397
145.04	-0.1681610720388505	0.0005609296302767145	-0.03787223333189981	0.9199885359342811	1.05091194552471	-0.2830528249751638	0.6454884735205881	-0.002504927593751498	0.08249219606950016	0.9130156554576064	0.9130156568457406	-0.135774985404671	-0.1734061630852238	-0.1224516540791819	0.01256867282997687	-0.05156595810038321	0.337032214962753	0.3370322154972222	-0.2508344473353687	-0.017674030729865
145.044	-0.1725579608762381	3.974841255025416e-05	-0.04195367447175898	0.9210976277692308	1.052832555480281	-0.2828676287981197	0.6416238457170912	0.000115680246546235	0.07996893292802071	0.8676071750417017	0.8676071763628919	-0.1319472770382455	-0.1691405704789428	-0.1260508861919558	0.01220238575113206	-0.05163859033508311	0.3350865256057649	0.3350865261060808	-0.2742488152862251	-0.02118761492364312
145.048	-0.1764982421725446	-1.366893679836061e-05	-0.04541919529726286	0.9221589610917689	1.054605837233138	-0.2827035012699811	0.6368207784104796	0.002052156649426841	0.07728532076216754	0.8220033714702549	0.8220033727173139	-0.1274803384221582	-0.1632047160283934	-0.1291798246675843	0.01234459012157819	-0.05050538021470304	0.3351336419208915	0.3351336423837793	-0.2957425603831513	-0.02503591282778823
145.052	-0.179932339442268	0.0004034047324085218	-0.04827702326393375	0.9231669879364066	1.056229964480617	-0.2825609161091199	0.6311028174607757	0.003301053964065043	0.07443293400005355	0.7763834265966498	0.776383427766826	-0.1224782745144552	-0.1556198549585975	-0.1318858284886767	0.01300723451948521	-0.04814344531117911	0.3372147799707494	0.337214780393031	-0.3152288648041309	-0.02919380068837026
145.056	-0.182820583652696	0.001281656305360577	-0.05054781758314051	0.9241168506159281	1.057703436642282	-0.282439622139702	0.6245082448423825	0.003876129518514115	0.07140195723890676	0.7309394553480509	0.7309394564430652	-0.1170663967132283	-0.1464436638971959	-0.134210990022587	0.01419019361483593	-0.04456124465572115	0.3413570793127794	0.3413570796913915	-0.3326348453429891	-0.03360770033435531
145.06	-0.1851338138244177	0.002599666967521859	-0.05226298445401136	0.9250044481825543	1.059025052987149	-0.2823387656840387	0.6170894652257851	0.003807619983837044	0.06818139529120011	0.6858745635620147	0.685874564587753	-0.1113861099351403	-0.1357677005749608	-0.1361915403499258	0.01588075054629931	-0.03979838506129602	0.3475729690767916	0.3475729694087144	-0.3479033058837476	-0.03819720411070864
145.064	-0.1868535559748312	0.004324371048873453	-0.05346276952910452	0.9258264915221041	1.060193893412263	-0.2822570196189974	0.6089118859988861	0.003140931128116387	0.06475969797155236	0.641400561722562	0.641400562688387	-0.1055890975346861	-0.123714274763604	-0.1378575729758431	0.01805348804827807	-0.03392464132625667	0.3558598181955799	0.3558598184777407	-0.3609948451802851	-0.0428580101083726
145.068	-0.1879716408121596	0.00641184461670375	-0.05419417501078121	0.9265805493451725	1.061209318056549	-0.2821927218388722	0.6000521331609455	0.001934912448014255	0.06112563006179892	0.5977353372770807	0.5977353381949202	-0.09983097746507889	-0.1104327806446241	-0.1392332609543275	0.02067045054714439	-0.02703804769004216	0.3661998491710831	0.3661998494000488	-0.3718903666674548	-0.04746634412382085
145.072	-0.1884892848807867	0.008808222550137855	-0.05450879956117172	0.9272650873684224	1.062070987578073	-0.282144019334861	0.5905956316313252	0.0002599406544133123	0.05726925580899683	0.5550999203615465	0.5550999212448384	-0.09426463900150851	-0.09609555943284541	-0.1403375693013468	0.02368142525911923	-0.0192620307737421	0.3785603005259788	0.3785603006972721	-0.3805939759740209	-0.05188486040554845
145.076	-0.1884158431310818	0.01145074688616423	-0.0544607419109574	0.9278794946203706	1.062778886915742	-0.2821090045919136	0.5806338470396225	-0.001804095674307748	0.05318305169589745	0.5137153850983366	0.5137153859607297	-0.08903353475431153	-0.08089348025737374	-0.1411852289231895	0.02702437564251098	-0.01074173080210051	0.3928938948644024	0.3928938949716396	-0.3871359916106739	-0.05596964110113008
145.08	-0.187767464034908	0.01426911612737502	-0.05410472563120745	0.9284240851890936	1.063333329815704	-0.2820858275430141	0.5702615634042055	-0.004169951815941264	0.04886325288048187	0.4737998010820949	0.4737998019358768	-0.08426524409748293	-0.06503154444389692	-0.1417877036181449	0.03062622920452519	-0.001639759751993746	0.4091396689444401	0.4091396689787805	-0.3915756318759109	-0.05957772752798061
145.084	-0.1865658261444482	0.01718733386364302	-0.05349459825663469	0.9289000638654268	1.063734926288505	-0.2820727676731543	0.5595745212334602	-0.00674539701714537	0.04431154533094731	0.435565458161714	0.4355654590162384	-0.08006562622647631	-0.04872486082627591	-0.1421539517247139	0.03440425808259488	0.007868316411782268	0.4272241781421113	0.4272241780924248	-0.3940029460358397	-0.06257461498226653
145.088	-0.1848370550491178	0.02012606886850128	-0.05268226696594615	0.9293094505158693	1.06398450767819	-0.2820682614396622	0.548667590451422	-0.009435769577482617	0.03953702461958047	0.399216507317932	0.3992165081785306	-0.07651381607409867	-0.03219517690102532	-0.1422908901985365	0.03826809942185565	0.01759856753466392	0.4470630554098573	0.447063055263718	-0.394539671167052	-0.06484127998041443
145.092	-0.1826107778083565	0.02300520199567968	-0.05171695680278399	0.9296549689515271	1.064083024769125	-0.2820709004531963	0.537633380735665	-0.01214650962299167	0.03455797000261591	0.3649470081374247	0.3649470090051585	-0.07365818910905689	-0.01566781119366843	-0.142203653349798	0.04212211506561986	0.02736337243468492	0.468562862832086	0.4685628625775379	-0.3933388759726074	-0.06628055163434042
145.096	-0.1799191977893581	0.02574612308742384	-0.0506446147187781	0.929939911113742	1.064031444267882	-0.2820794240796088	0.5265610589265654	-0.01478541035220278	0.02940286788616484	0.3329392964520334	0.3329392973242912	-0.07151334053631479	0.00063132005079763	-0.141895836476007	0.0458676723501756	0.03697625148719	0.4916231313769794	0.4916231310049611	-0.3905833806548293	-0.06682276847181391
145.1	-0.176796185782921	0.02827362561424447	-0.04950744165048949	0.9301679820741031	1.063830654598749	-0.2820927122701133	0.5155353340244312	-0.01726447465085434	0.02411052543312572	0.3033626547130276	0.3033626555847256	-0.07005814959658742	0.01647866400848687	-0.141369778304335	0.04940521028344889	0.04625669769102572	0.5161384720424654	0.5161384715495327	-0.3864829436090347	-0.0664305684758036
145.104	-0.1732765237257995	0.03051752995601337	-0.04834368310280781	0.9303431267817411	1.063481375118264	-0.2821097652794664	0.50463578625806	-0.01950140649287558	0.01872954271374644	0.2763723292738441	0.2763723301389623	-0.06923504217415487	0.03165582414050484	-0.140626763675831	0.05263622855505471	0.0550346376854758	0.5420006525111025	0.5420006519017508	-0.3812701811023106	-0.06510252825575265
145.108	-0.1693954135816929	0.03241412582890763	-0.04718774908261339	0.9304693425083118	1.062984066391098	-0.2821296610080233	0.4939366599567503	-0.02142076238798738	0.01331738442647936	0.2521088861103897	0.2521088869636184	-0.06895055571630548	0.04595210179891057	-0.1396670425174819	0.05546527846068575	0.063154246293632	0.5691005543318608	0.5691005536197229	-0.3751952706038331	-0.062875385056309
